<?xml version="1.0" encoding="UTF-8"?>
<!DOCTYPE svg PUBLIC "-//W3C//DTD SVG 1.1//EN" "http://www.w3.org/Graphics/SVG/1.1/DTD/svg11.dtd">
<svg xmlns="http://www.w3.org/2000/svg" version="1.1" width="32px" height="32px" style="shape-rendering:geometricPrecision; text-rendering:geometricPrecision; image-rendering:optimizeQuality; fill-rule:evenodd; clip-rule:evenodd" xmlns:xlink="http://www.w3.org/1999/xlink">
<g><path style="opacity:1" fill="#ebebeb" d="M 3.5,-0.5 C 8.16667,-0.5 12.8333,-0.5 17.5,-0.5C 18.1667,0.166667 18.8333,0.833333 19.5,1.5C 19.5544,3.63195 20.5544,4.96528 22.5,5.5C 23.2216,5.91753 23.7216,6.5842 24,7.5C 24.6667,14.5 24.6667,21.5 24,28.5C 23.2917,29.3805 22.4584,30.0472 21.5,30.5C 20.1667,30.5 18.8333,30.5 17.5,30.5C 17.9746,27.9179 17.3079,25.9179 15.5,24.5C 12.1667,24.5 8.83333,24.5 5.5,24.5C 3.69206,25.9179 3.02539,27.9179 3.5,30.5C 2.16667,30.5 0.833333,30.5 -0.5,30.5C -0.5,21.1667 -0.5,11.8333 -0.5,2.5C -0.166667,2.5 0.166667,2.5 0.5,2.5C 2.02694,2.57298 3.02694,1.90632 3.5,0.5C 3.5,0.166667 3.5,-0.166667 3.5,-0.5 Z"/></g>
<g><path style="opacity:1" fill="#d4d4d4" d="M 26.5,-0.5 C 28.1667,-0.5 29.8333,-0.5 31.5,-0.5C 31.5,2.16667 31.5,4.83333 31.5,7.5C 30.1667,7.5 28.8333,7.5 27.5,7.5C 23.9715,5.35358 23.6381,2.68692 26.5,-0.5 Z"/></g>
<g><path style="opacity:1" fill="#616161" d="M 3.5,0.5 C 3.02694,1.90632 2.02694,2.57298 0.5,2.5C 0.973056,1.09368 1.97306,0.427017 3.5,0.5 Z"/></g>
<g><path style="opacity:1" fill="#929292" d="M 19.5,1.5 C 21.2624,2.26231 22.2624,3.59565 22.5,5.5C 20.5544,4.96528 19.5544,3.63195 19.5,1.5 Z"/></g>
<g><path style="opacity:1" fill="#0c0c0c" d="M 27.5,7.5 C 28.8333,7.5 30.1667,7.5 31.5,7.5C 31.5,8.16667 31.5,8.83333 31.5,9.5C 31.1667,9.5 30.8333,9.5 30.5,9.5C 29.5,8.83333 28.5,8.16667 27.5,7.5 Z"/></g>
<g><path style="opacity:1" fill="#f0f0f0" d="M 30.5,9.5 C 30.8333,9.5 31.1667,9.5 31.5,9.5C 31.5,16.5 31.5,23.5 31.5,30.5C 31.1667,30.5 30.8333,30.5 30.5,30.5C 29.1667,30.5 27.8333,30.5 26.5,30.5C 26.2487,24.1082 26.582,17.7748 27.5,11.5C 27.9731,10.0937 28.9731,9.42702 30.5,9.5 Z"/></g>
<g><path style="opacity:1" fill="#979797" d="M 27.5,11.5 C 26.582,17.7748 26.2487,24.1082 26.5,30.5C 27.8333,30.5 29.1667,30.5 30.5,30.5C 30.5,30.8333 30.5,31.1667 30.5,31.5C 28.8333,31.5 27.1667,31.5 25.5,31.5C 25.3338,25.1579 25.5005,18.8246 26,12.5C 26.3826,11.944 26.8826,11.6107 27.5,11.5 Z"/></g>
<g><path style="opacity:1" fill="#949494" d="M 5.5,24.5 C 4.63137,26.717 4.29803,29.0504 4.5,31.5C 2.83333,31.5 1.16667,31.5 -0.5,31.5C -0.5,31.1667 -0.5,30.8333 -0.5,30.5C 0.833333,30.5 2.16667,30.5 3.5,30.5C 3.02539,27.9179 3.69206,25.9179 5.5,24.5 Z"/></g>
<g><path style="opacity:1" fill="#9c9c9c" d="M 15.5,24.5 C 17.3079,25.9179 17.9746,27.9179 17.5,30.5C 18.8333,30.5 20.1667,30.5 21.5,30.5C 21.5,30.8333 21.5,31.1667 21.5,31.5C 19.8333,31.5 18.1667,31.5 16.5,31.5C 16.702,29.0504 16.3686,26.717 15.5,24.5 Z"/></g>
</svg>
