<svg width="35" height="35" viewBox="0 0 35 35" fill="none" xmlns="http://www.w3.org/2000/svg">
<path fill-rule="evenodd" clip-rule="evenodd" d="M23.009 13.8746C23.0873 13.8746 23.1069 13.9138 23.0678 13.9726L21.7365 16.3046L17.586 23.6142C17.586 23.6534 17.5468 23.6534 17.5077 23.6534C17.4685 23.6534 17.4489 23.6534 17.4293 23.6142L11.928 14.0118C11.8888 13.953 11.928 13.9334 11.9671 13.9334H12.3195L23.0286 13.8942L23.009 13.8746ZM13.0047 1.09742C12.9656 1.09742 12.946 1.09743 12.9264 1.13662L8.36479 9.13214C8.32564 9.21053 8.24732 9.24972 8.14944 9.24972H3.5878C3.48991 9.24972 3.47033 9.28891 3.52906 9.3673L12.7698 25.5543C12.809 25.6131 12.7894 25.6523 12.7111 25.6523H8.2669C8.12986 25.6523 8.01239 25.7307 7.95366 25.8679L5.85883 29.5521C5.78051 29.6697 5.81967 29.748 5.97629 29.748H15.08C15.1583 29.748 15.217 29.7872 15.2366 29.8656L17.4685 33.785C17.5468 33.9222 17.6055 33.9222 17.6839 33.785L25.652 19.832L26.905 17.6372C26.905 17.598 26.9442 17.598 26.9833 17.598C27.0225 17.598 27.0421 17.598 27.0617 17.6372L29.3327 21.6741C29.3718 21.7329 29.4306 21.7721 29.5089 21.7721L33.9139 21.7329C33.9335 21.7329 33.9531 21.7329 33.9726 21.6937C33.9726 21.6741 33.9726 21.6545 33.9726 21.6349L29.3523 13.5218C29.3131 13.463 29.3131 13.4043 29.3523 13.3455L29.8221 12.542L31.6037 9.3869C31.6429 9.32811 31.6037 9.28892 31.545 9.28892H13.0831C12.9852 9.28892 12.9656 9.24972 13.0243 9.17133L15.3149 5.17357C15.3541 5.11478 15.3541 5.05599 15.3149 4.9972L13.1418 1.17581C13.1418 1.13662 13.1026 1.11702 13.0635 1.11702L13.0047 1.09742ZM18.467 0.470324C19.0935 1.56775 19.72 2.66517 20.3269 3.7822C20.3856 3.88018 20.4639 3.91937 20.5814 3.91937H29.411C29.6851 3.91937 29.92 4.09574 30.1158 4.44849L32.426 8.54423C32.7197 9.07335 32.8175 9.30851 32.4651 9.87682C32.054 10.5627 31.6429 11.2486 31.2513 11.9541L30.664 13.0123C30.4878 13.3259 30.3116 13.463 30.6052 13.8354L34.8341 21.2234C35.1082 21.6937 35.0103 22.0073 34.7753 22.458C34.0705 23.7122 33.3657 24.9468 32.6413 26.1814C32.3868 26.6125 32.0736 26.7693 31.5646 26.7693C30.3312 26.7497 29.0978 26.7693 27.8643 26.7889C27.8056 26.7889 27.7665 26.8281 27.7273 26.8673C26.2981 29.3953 24.8689 31.9037 23.4202 34.4121C23.1461 34.8824 22.8133 35 22.2651 35C20.6793 35 19.0739 35 17.4685 35C17.1357 35 16.9007 34.8628 16.7245 34.5689L14.5906 30.8651C14.571 30.8063 14.5122 30.7867 14.4535 30.7867H6.30912C5.85883 30.8259 5.42811 30.7867 5.03656 30.6495L2.49143 26.2402C2.33481 25.9463 2.33481 25.6719 2.49143 25.3779L4.41006 22.0073C4.4688 21.9093 4.4688 21.7917 4.41006 21.6937C3.41159 19.9496 2.41312 18.2251 1.43423 16.481L0.181245 14.2665C-0.0732673 13.7766 -0.0928446 13.4826 0.337868 12.738C1.08183 11.4446 1.80621 10.1512 2.55017 8.85778C2.76552 8.48544 3.03961 8.32867 3.47033 8.32867C4.84078 8.32867 6.21123 8.32867 7.60126 8.32867C7.67957 8.32867 7.7383 8.28947 7.77746 8.23068L12.2412 0.43113C12.3978 0.176371 12.6132 0.0391931 12.9069 0.0391931C13.7487 0.0391931 14.5906 0.0391931 15.4324 0.0391931L17.0574 0C17.6055 0 18.2125 0.0587912 18.4865 0.548713L18.467 0.470324Z" fill="#615CED"/>
</svg>
