<svg width="56" height="48" viewBox="0 0 56 48" fill="none" xmlns="http://www.w3.org/2000/svg">
<path d="M20.3792 0.125C7.69689 0.125 0.125 8.07213 0.125 21.3833V37.5816C0.125 43.2477 4.71834 47.841 10.3844 47.841V39.8627C10.3844 37.5473 12.2616 35.6701 14.577 35.6701H26.1815C28.4968 35.6701 30.3741 37.5473 30.3741 39.8627V47.841C36.0729 47.841 40.6922 43.2212 40.6922 37.5229V21.3839C40.6922 8.07213 33.0985 0.125 20.3792 0.125Z" fill="white" stroke="black" stroke-width="0.25" stroke-miterlimit="10"/>
<path d="M49.0499 12.0974C52.4567 12.0974 55.125 9.42913 55.125 6.02233C55.125 2.77041 52.4001 0.125 49.0499 0.125C45.7008 0.125 42.9754 2.79691 42.9754 6.08158C42.9759 9.39847 45.7008 12.0974 49.0499 12.0974Z" fill="white" stroke="black" stroke-width="0.25" stroke-miterlimit="10"/>
<path d="M43.9207 47.8405C49.554 47.8405 54.1204 43.2737 54.1204 37.6409V14.9538C48.487 14.9538 43.9207 19.5207 43.9207 25.1534V47.8405Z" fill="white" stroke="black" stroke-width="0.25" stroke-miterlimit="10"/>
</svg>
